/* XPM */
static char * xmoto_xpm[] = {
"48 48 48 1",
" 	c None",
".	c #C0C0C0",
"+	c #A1A1A1",
"@	c #A0A0A0",
"#	c #A5A5A5",
"$	c #373737",
"%	c #202020",
"&	c #696969",
"*	c #808080",
"=	c #505050",
"-	c #101010",
";	c #000000",
">	c #606060",
",	c #303030",
"'	c #B0B0B0",
")	c #858585",
"!	c #1B1B1B",
"~	c #707070",
"{	c #050505",
"]	c #9B9B9B",
"^	c #060606",
"/	c #242400",
"(	c #747400",
"_	c #7F7F00",
":	c #555500",
"<	c #707030",
"[	c #404000",
"}	c #2A2A00",
"|	c #D4D400",
"1	c #FFFF00",
"2	c #808000",
"3	c #070700",
"4	c #232300",
"5	c #959500",
"6	c #292900",
"7	c #B1B100",
"8	c #EAEA00",
"9	c #B6B600",
"0	c #BFBF00",
"a	c #4E4E00",
"b	c #DCDC00",
"c	c #F8F800",
"d	c #404040",
"e	c #6A6A00",
"f	c #151500",
"g	c #575757",
"h	c #D5D500",
"i	c #2B2B00",
"        ......                   ....     ....  ",
"        +@@@@+                   #@@#     #@@#  ",
"       +$%%%%$+.....   .        .&%%&.....&%%&. ",
"      *=-;;;;-=>>>>&#.#&*      #&,;;,>>>>>,;;,&#",
"     .>;;;;;;;;;;;;%@')!>.    #)!;;;;;;;;;;;;;%@",
"     .>;;;;;;;;;;;;%@~!{>.   .&!{;;;;;;;;;;;;;%@",
"      *=-;;;;;;;;;;-=,;;>.  #&,;;;;;;;;;;;;;;;%@",
"      .@%;;;;;;;;;;;;;;;=+ .@%;;;;;;;;;;;;;{!%$+",
"      .@%;;;;;;;;;;;;;;;-$+.@%;;;;;;;;;;;;;!)@+ ",
"       #&,;;;;;;;;;;;;;;;%@.@%;;;;;;;;;;;;,&#.  ",
"        .&!{;;;;;;;;;;;;;%@')!;;;;;;;;;;{!&.    ",
"         #)!;;;;;;;;;;;;;%@~!{;;;;;;;;;;!)#     ",
"          #&,;;;;;;;;;;;;%@>;;;;;;;;;;;,&#      ",
"           ]>!{;;;;;;;;;;!)=;;;;;;;;;{!>]       ",
"  ;;;     ^!>)!;;;;;;;;;;{!-;;;;;;;;;!)>!^;;;   ",
";/(_(/   :__<=-[_____[;;[___________[-=<_____:  ",
";}|1|}; ;21123451111154321111111111123451111156 ",
";}|1|}; ;211247811111874211111111111247811111896",
";}|185:/(0112}|1852581|}[22258185222[}|1852581|}",
";}|1115ab1112}|1|};}|1|};;;;}|1|}-!^;}|1|};}|1|}",
";}|1118bc1112}|1|};}|1|};;;;}|1|}=] ;}|1|};}|1|}",
";}|1850850112}|1|};}|1|};;;;}|1|}d  ;}|1|};}|1|}",
";}|1|}e742112}|1|};}|1|};;;;}|1|};  ;}|1|};}|1|}",
";}|1|}f432112}|1|};}|1|};;;;}|1|};  ;}|1|};}|1|}",
";}|1|};;;2112}|1|};}|1|};;;;}|1|};  ;}|1|};}|1|}",
";}|1|}; ;2112}|1ba}ab1|};;;;}|1|}!  ;}|1ba}ab1|}",
";}|1|}; ;2112}|1cb|bc1|};;;;}|1|}g. ;}|1cb|bc1|}",
";}|1|}; ;2112fe0111110ef;;;;}|1|},&#>/(0111110(/",
";69h96  ;(hhe;;ehhhhhe;;;;;;47h74;%@. ;(hhhhh(; ",
"  6i6    /iif;;fiiiiif;;;;;;34i43;%@.  /iiiii/  ",
"   ;     >=-;;;;;;;;;;-=,;;;;;;;;;-=*   ;;;;;   ",
"         #)!;;;;;;;;;;%@>;;;;;;;;;;;=+          ",
"        .&!{;;;;;;;;;;%@>;;;;;;;;;;;-$+         ",
"       #&,;;;;;;;;;;;,&#*=-;;;;;;;;;;-=*        ",
"      #)!;;;;;;;;;;;;>. .@%;;;;;;;;;;;;=+       ",
"     .&!{;;;;;;;;;;;;>. .@%;;;;;;;;;;;;-$+      ",
"    #&,;;;;;;;;;;;;;;>. .@%;;;;;;;;;;;;;%@.     ",
"   #)!;;;;;;;;;;;;;{!&. .@%;;;;;;;;;;;;;!)#     ",
"  .&!{;;;;;;;;;;;;;!)#  .@%;;;;;;;;;;;;;{!&.    ",
"  .>;;;;;;;;;;;;;;,&#    #&,;;;;;;;;;;;;;;,&#   ",
"  +=;;;;;;;;;;;-%%&.      .&%%-;;;;;;;;;;;;!)#  ",
".+$-;;;;;;;;;;;=@@#        #@@=;;;;;;;;;;;;{!&. ",
".@%;;;;;;;;;;-=*..          ..*>>,-=>=-;;;;;;>. ",
".@%;;;;;;;{!%$+                ..&$+.+$-;;;;;>. ",
".@%;;;;;;;!)@+                   #+   +=;;;;;>. ",
".#&,;;;-=>&#.                          *>>>>>*  ",
"  .&%%%$+..                             .....   ",
"   #@@@+                                        "};
